<svg width="758" height="741" viewBox="0 0 758 741" fill="none" xmlns="http://www.w3.org/2000/svg">
                            <g opacity="0.03">
                                <ellipse opacity="0.1" cx="752" cy="370.646" rx="750" ry="749.646" stroke="white" strokeWidth="3" stroke-miterlimit="4.62023" strokeLinecap="round" stroke-dasharray="35 50 15 15"></ellipse>
                                <path opacity="0.1" d="M1443.13 370.646C1443.13 752.153 1133.7 1061.43 752 1061.43C370.296 1061.43 60.8655 752.153 60.8655 370.646C60.8655 -10.8606 370.296 -320.134 752 -320.134C1133.7 -320.134 1443.13 -10.8606 1443.13 370.646Z" stroke="white" strokeWidth="3"></path>
                                <ellipse opacity="0.2" cx="752" cy="370.646" rx="634.561" ry="634.207" stroke="white" strokeWidth="3" stroke-miterlimit="4.62023" strokeLinecap="round" stroke-dasharray="35 50 15 15"></ellipse>
                                <path opacity="0.3" d="M1328.4 370.646C1328.4 688.789 1070.34 946.696 752 946.696C433.66 946.696 175.596 688.789 175.596 370.646C175.596 52.5037 433.66 -205.403 752 -205.403C1070.34 -205.403 1328.4 52.5037 1328.4 370.646Z" stroke="white" strokeWidth="3"></path>
                                <ellipse opacity="0.4" cx="752" cy="370.646" rx="519.83" ry="519.476" stroke="white" strokeWidth="3" stroke-miterlimit="4.62023" strokeLinecap="round" stroke-dasharray="35 50 15 15"></ellipse>
                                <path opacity="0.5" d="M1211.55 370.646C1211.55 624.251 1005.8 829.84 752 829.84C498.197 829.84 292.452 624.251 292.452 370.646C292.452 117.041 498.197 -88.5479 752 -88.5479C1005.8 -88.5479 1211.55 117.041 1211.55 370.646Z" stroke="white" strokeWidth="3"></path>
                                <path opacity="0.6" d="M1155.6 370.646C1155.6 593.351 974.903 773.891 752 773.891C529.097 773.891 348.401 593.351 348.401 370.646C348.401 147.942 529.097 -32.5986 752 -32.5986C974.903 -32.5986 1155.6 147.942 1155.6 370.646Z" stroke="white" strokeWidth="3"></path>
                                <ellipse opacity="0.7" cx="752" cy="370.646" rx="350.567" ry="350.212" stroke="white" strokeWidth="3" stroke-miterlimit="4.62023" strokeLinecap="round" stroke-dasharray="35 50 15 15"></ellipse>
                                <path opacity="0.8" d="M1040.16 370.647C1040.16 529.596 911.148 658.453 752 658.453C592.852 658.453 463.84 529.596 463.84 370.647C463.84 211.698 592.852 82.8408 752 82.8408C911.148 82.8408 1040.16 211.698 1040.16 370.647Z" stroke="white" strokeWidth="3"></path>
                                <ellipse opacity="0.9" cx="752" cy="370.646" rx="223.088" ry="222.734" stroke="white" strokeWidth="3" stroke-miterlimit="4.62023" strokeLinecap="round" stroke-dasharray="35 50 15 15"></ellipse>
                                <path d="M909.848 370.646C909.848 457.624 839.18 528.14 752 528.14C664.82 528.14 594.152 457.624 594.152 370.646C594.152 283.667 664.82 213.151 752 213.151C839.18 213.151 909.848 283.667 909.848 370.646Z" stroke="white" strokeWidth="3"></path>
                                <ellipse cx="752" cy="370.646" rx="106.941" ry="106.586" stroke="white" strokeWidth="3" stroke-miterlimit="4.62023" strokeLinecap="round" stroke-dasharray="35 50 15 15"></ellipse>
                            </g>
                        </svg>